<svg xmlns="http://www.w3.org/2000/svg" width="620" height="400" viewBox="0 0 620 400" font-family="-apple-system,Segoe UI,Roboto,sans-serif">
<rect width="620" height="400" fill="#fff"/>
<text x="60" y="26" font-size="17" font-weight="700" fill="#111">Decode throughput - in-tree vs libdeflate (natural-image corpus)</text>
<text x="60" y="44" font-size="12" fill="#666">openexr-images; libdeflate is the DEFLATE=auto hosted default.</text>
<line x1="60" y1="328.0" x2="602" y2="328.0" stroke="#eee"/>
<text x="52" y="332.0" font-size="11" fill="#888" text-anchor="end">0</text>
<line x1="60" y1="275.2" x2="602" y2="275.2" stroke="#eee"/>
<text x="52" y="279.2" font-size="11" fill="#888" text-anchor="end">100</text>
<line x1="60" y1="222.4" x2="602" y2="222.4" stroke="#eee"/>
<text x="52" y="226.4" font-size="11" fill="#888" text-anchor="end">200</text>
<line x1="60" y1="169.6" x2="602" y2="169.6" stroke="#eee"/>
<text x="52" y="173.6" font-size="11" fill="#888" text-anchor="end">300</text>
<line x1="60" y1="116.8" x2="602" y2="116.8" stroke="#eee"/>
<text x="52" y="120.8" font-size="11" fill="#888" text-anchor="end">400</text>
<line x1="60" y1="64.0" x2="602" y2="64.0" stroke="#eee"/>
<text x="52" y="68.0" font-size="11" fill="#888" text-anchor="end">500</text>
<text x="16" y="196" font-size="12" fill="#666" transform="rotate(-90 16 196)" text-anchor="middle">megapixels / s</text>
<rect x="107.7" y="208.7" width="42.6" height="119.3" fill="#2563eb" rx="2"/>
<text x="129.0" y="204.7" font-size="9" fill="#444" text-anchor="middle">226</text>
<rect x="150.3" y="121.6" width="42.6" height="206.4" fill="#16a34a" rx="2"/>
<text x="171.6" y="117.6" font-size="9" fill="#444" text-anchor="middle">391</text>
<text x="150.3" y="346" font-size="12" fill="#333" text-anchor="middle">zip</text>
<rect x="288.4" y="237.7" width="42.6" height="90.3" fill="#2563eb" rx="2"/>
<text x="309.7" y="233.7" font-size="9" fill="#444" text-anchor="middle">171</text>
<rect x="331.0" y="181.2" width="42.6" height="146.8" fill="#16a34a" rx="2"/>
<text x="352.3" y="177.2" font-size="9" fill="#444" text-anchor="middle">278</text>
<text x="331.0" y="346" font-size="12" fill="#333" text-anchor="middle">zips</text>
<rect x="469.1" y="164.8" width="42.6" height="163.2" fill="#2563eb" rx="2"/>
<text x="490.4" y="160.8" font-size="9" fill="#444" text-anchor="middle">309</text>
<rect x="511.7" y="75.1" width="42.6" height="252.9" fill="#16a34a" rx="2"/>
<text x="533.0" y="71.1" font-size="9" fill="#444" text-anchor="middle">479</text>
<text x="511.7" y="346" font-size="12" fill="#333" text-anchor="middle">pxr24</text>
<line x1="60" y1="328.0" x2="602" y2="328.0" stroke="#bbb"/>
<rect x="60" y="370" width="12" height="12" fill="#2563eb" rx="2"/>
<text x="77" y="380" font-size="12" fill="#333">tinyexr (in-tree)</text>
<rect x="203" y="370" width="12" height="12" fill="#16a34a" rx="2"/>
<text x="220" y="380" font-size="12" fill="#333">tinyexr (libdeflate)</text>
</svg>
